<mxfile modified="2024-02-18T11:47:25.463Z" host="app.diagrams.net" agent="Mozilla/5.0 (Windows NT 10.0; Win64; x64) AppleWebKit/537.36 (KHTML, like Gecko) Chrome/121.0.0.0 Safari/537.36" etag="8QULidOqlMFdkad6XTmm" version="23.1.5" type="github">
  <diagram id="l8hXMBHkgcEJcSW0mbfh" name="Page-1">
    <mxGraphModel dx="1114" dy="598" grid="1" gridSize="10" guides="1" tooltips="1" connect="1" arrows="1" fold="1" page="1" pageScale="1" pageWidth="1169" pageHeight="827" math="0" shadow="0">
      <root>
        <mxCell id="0" />
        <mxCell id="1" parent="0" />
        <mxCell id="osPQ3NNA6qfCRtM9j04P-14" style="edgeStyle=orthogonalEdgeStyle;rounded=0;orthogonalLoop=1;jettySize=auto;html=1;exitX=1;exitY=1;exitDx=0;exitDy=0;exitPerimeter=0;entryX=0.5;entryY=0;entryDx=0;entryDy=0;" edge="1" parent="1" source="osPQ3NNA6qfCRtM9j04P-1" target="osPQ3NNA6qfCRtM9j04P-10">
          <mxGeometry relative="1" as="geometry" />
        </mxCell>
        <mxCell id="osPQ3NNA6qfCRtM9j04P-1" value="Actor" style="shape=umlActor;verticalLabelPosition=bottom;verticalAlign=top;html=1;outlineConnect=0;" vertex="1" parent="1">
          <mxGeometry x="540" y="40" width="30" height="60" as="geometry" />
        </mxCell>
        <mxCell id="osPQ3NNA6qfCRtM9j04P-2" value="Actor" style="shape=umlActor;verticalLabelPosition=bottom;verticalAlign=top;html=1;outlineConnect=0;" vertex="1" parent="1">
          <mxGeometry x="260" y="250" width="30" height="60" as="geometry" />
        </mxCell>
        <mxCell id="osPQ3NNA6qfCRtM9j04P-7" value="Actor" style="shape=umlActor;verticalLabelPosition=bottom;verticalAlign=top;html=1;outlineConnect=0;" vertex="1" parent="1">
          <mxGeometry x="260" y="360" width="30" height="60" as="geometry" />
        </mxCell>
        <mxCell id="osPQ3NNA6qfCRtM9j04P-17" style="edgeStyle=orthogonalEdgeStyle;rounded=0;orthogonalLoop=1;jettySize=auto;html=1;exitX=1;exitY=1;exitDx=0;exitDy=0;exitPerimeter=0;entryX=0.5;entryY=1;entryDx=0;entryDy=0;" edge="1" parent="1" source="osPQ3NNA6qfCRtM9j04P-8" target="osPQ3NNA6qfCRtM9j04P-10">
          <mxGeometry relative="1" as="geometry" />
        </mxCell>
        <mxCell id="osPQ3NNA6qfCRtM9j04P-8" value="Actor" style="shape=umlActor;verticalLabelPosition=bottom;verticalAlign=top;html=1;outlineConnect=0;" vertex="1" parent="1">
          <mxGeometry x="260" y="470" width="30" height="60" as="geometry" />
        </mxCell>
        <mxCell id="osPQ3NNA6qfCRtM9j04P-10" value="&lt;font face=&quot;Courier New&quot; style=&quot;font-size: 29px;&quot;&gt;AASTU&lt;/font&gt;" style="ellipse;whiteSpace=wrap;html=1;labelBorderColor=none;labelBackgroundColor=none;" vertex="1" parent="1">
          <mxGeometry x="650" y="210" width="120" height="120" as="geometry" />
        </mxCell>
        <mxCell id="osPQ3NNA6qfCRtM9j04P-15" style="edgeStyle=orthogonalEdgeStyle;rounded=0;orthogonalLoop=1;jettySize=auto;html=1;exitX=0.5;exitY=0.5;exitDx=0;exitDy=0;exitPerimeter=0;entryX=-0.042;entryY=0.575;entryDx=0;entryDy=0;entryPerimeter=0;" edge="1" parent="1" source="osPQ3NNA6qfCRtM9j04P-2" target="osPQ3NNA6qfCRtM9j04P-10">
          <mxGeometry relative="1" as="geometry" />
        </mxCell>
        <mxCell id="osPQ3NNA6qfCRtM9j04P-16" style="edgeStyle=orthogonalEdgeStyle;rounded=0;orthogonalLoop=1;jettySize=auto;html=1;exitX=1;exitY=1;exitDx=0;exitDy=0;exitPerimeter=0;entryX=0.158;entryY=0.908;entryDx=0;entryDy=0;entryPerimeter=0;" edge="1" parent="1" source="osPQ3NNA6qfCRtM9j04P-7" target="osPQ3NNA6qfCRtM9j04P-10">
          <mxGeometry relative="1" as="geometry" />
        </mxCell>
      </root>
    </mxGraphModel>
  </diagram>
</mxfile>
